<?xml version="1.0" standalone="no"?><!DOCTYPE svg PUBLIC "-//W3C//DTD SVG 1.1//EN" "http://www.w3.org/Graphics/SVG/1.1/DTD/svg11.dtd"><svg t="1734504803493" class="icon" viewBox="0 0 1024 1024" version="1.1" xmlns="http://www.w3.org/2000/svg" p-id="16516" xmlns:xlink="http://www.w3.org/1999/xlink" width="200" height="200"><path d="M544 0s-640 416-38.912 896c0 0 73.856-149.632 38.912-896z" fill="#50AA1F" p-id="16517"></path><path d="M578.88 0s5.76 583.776 3.136 606.592c-3.104 27.168-0.448 46.048-3.104 91.488 0 0-16.192 117.44 27.904 165.248 0 0 181.6 32.48 159.296-355.296 0 0 9.312-151.68-49.28-289.184 0 0-54.496-126.304-119.872-191.232L578.912 0z" fill="#276F00" p-id="16518"></path><path d="M557.984 896s-5.856 33.152-13.984 39.776c0 0 8.128 39.776 6.976 79.552l23.04 8.672s-5.664-78.016 1.984-103.52L557.984 896z" fill="#2E8200" fill-opacity=".85" p-id="16519"></path></svg>