<?xml version="1.0" standalone="no"?><!DOCTYPE svg PUBLIC "-//W3C//DTD SVG 1.1//EN" "http://www.w3.org/Graphics/SVG/1.1/DTD/svg11.dtd"><svg t="1734505040868" class="icon" viewBox="0 0 1024 1024" version="1.1" xmlns="http://www.w3.org/2000/svg" p-id="32952" xmlns:xlink="http://www.w3.org/1999/xlink" width="200" height="200"><path d="M848 704m-96 0a96 96 0 1 0 192 0 96 96 0 1 0-192 0Z" fill="#1969FF" p-id="32953"></path><path d="M1003.5 487.4l-119-142.8C873.2 331 849.5 320 832 320H672v384h48c0-70.7 57.3-128 128-128s128 57.3 128 128h16c17.7 0 32-14.3 32-32V544c0-17.7-9.2-43-20.5-56.6zM898 480H752c-8.8 0-16-7.2-16-16v-64c0-8.8 7.2-16 16-16h65c8.8 0 20.6 5.5 26.4 12.3l60.4 71.6c5.6 6.6 3.1 12.1-5.8 12.1z" fill="#1969FF" p-id="32954"></path><path d="M400 704m-96 0a96 96 0 1 0 192 0 96 96 0 1 0-192 0Z" fill="#1969FF" p-id="32955"></path><path d="M608 224h-416c-17.5 0-32 14.3-32 32v32h96c17.7 0 32 14.3 32 32s-14.3 32-32 32h-96v63.2h64c17.7 0 32 14.3 32 32s-14.3 32-32 32h-64v64h32c17.7 0 32 14.3 32 32s-14.3 32-32 32h-32V672c0 17.7 14.5 32 32 32h80c0-70.7 57.3-128 128-128S528 633.3 528 704h112V256c0-17.7-14.3-32-32-32zM32 447.2c0 17.7 14.5 32 32 32h64v-64h-64c-17.5 0-32 14.4-32 32zM0 320c0 17.7 14.5 32 32 32h96v-64h-96c-17.5 0-32 14.3-32 32zM64 575.2c0 17.7 14.5 32 32 32h32v-64h-32c-17.5 0-32 14.4-32 32z" fill="#1969FF" p-id="32956"></path></svg>